<?xml version="1.0" standalone="no"?>
<!DOCTYPE svg PUBLIC "-//W3C//DTD SVG 20010904//EN"
 "http://www.w3.org/TR/2001/REC-SVG-20010904/DTD/svg10.dtd">
<svg version="1.0" xmlns="http://www.w3.org/2000/svg"
 width="50.000000pt" height="44.000000pt" viewBox="0 0 50.000000 44.000000"
 preserveAspectRatio="xMidYMid meet">

<g transform="translate(0.000000,44.000000) scale(0.100000,-0.100000)"
fill="#000000" stroke="none">
<path d="M254 390 c0 -11 6 -20 12 -20 7 0 10 8 7 20 -3 11 -8 20 -12 20 -4 0
-7 -9 -7 -20z"/>
<path d="M180 389 l24 -10 -29 -19 c-17 -11 -38 -20 -47 -20 -9 0 -19 -4 -22
-9 -4 -5 3 -7 15 -4 19 5 20 4 10 -16 -7 -11 -8 -21 -3 -21 6 0 12 9 15 20 4
14 14 20 34 21 24 0 25 2 8 9 -18 7 -18 9 9 19 28 11 28 12 10 26 -10 8 -26
14 -34 14 -8 0 -4 -5 10 -10z"/>
<path d="M302 365 c-1 -13 2 -26 7 -29 5 -3 9 6 9 19 0 33 -13 41 -16 10z"/>
<path d="M345 320 c-4 -6 -11 -8 -16 -5 -5 4 -9 -8 -9 -25 0 -18 6 -33 15 -36
8 -4 15 -12 15 -20 0 -8 6 -14 14 -14 11 0 12 -8 6 -35 -7 -29 -5 -37 10 -45
24 -13 40 -13 40 0 0 5 -7 7 -15 4 -19 -8 -19 1 1 32 15 22 15 24 0 18 -19 -7
-22 16 -3 36 10 12 9 12 -4 2 -13 -10 -19 -9 -29 2 -6 9 -9 19 -6 25 3 5 -3 7
-14 4 -25 -7 -27 22 -3 49 9 10 13 18 10 18 -3 0 -9 -5 -12 -10z"/>
<path d="M84 268 l-19 -23 23 19 c22 19 22 19 22 -6 0 -14 -7 -31 -15 -38 -8
-7 -15 -18 -14 -24 0 -7 2 -6 6 2 7 18 21 15 26 -5 4 -17 4 -17 12 1 5 11 3
21 -5 26 -9 6 -7 11 9 20 l22 11 -22 20 c-27 23 -22 23 -45 -3z"/>
<path d="M220 261 c0 -5 5 -13 10 -16 19 -12 11 -45 -11 -45 -17 0 -20 5 -17
25 6 27 -6 34 -16 10 -14 -37 21 -63 57 -43 12 7 28 13 35 14 32 5 25 34 -8
34 -10 0 -26 7 -34 16 -9 8 -16 11 -16 5z"/>
<path d="M316 212 c-2 -4 4 -8 14 -8 10 0 16 4 14 8 -3 4 -9 8 -14 8 -5 0 -11
-4 -14 -8z"/>
<path d="M140 187 c0 -9 -7 -17 -15 -17 -13 0 -14 -4 -4 -22 7 -13 12 -39 12
-58 0 -21 1 -26 4 -12 3 18 10 22 31 20 21 -2 28 2 30 20 2 12 -1 22 -7 22 -6
0 -11 -6 -11 -14 0 -9 -7 -12 -19 -9 -16 4 -17 9 -8 34 9 22 8 32 -1 41 -9 9
-12 8 -12 -5z"/>
<path d="M326 162 l-19 -27 24 22 c12 12 21 24 18 27 -2 2 -13 -8 -23 -22z"/>
<path d="M91 144 c0 -11 3 -14 6 -6 3 7 2 16 -1 19 -3 4 -6 -2 -5 -13z"/>
<path d="M340 117 c0 -14 -11 -17 -88 -21 -61 -4 -90 -24 -76 -53 7 -15 8 -14
12 10 2 15 6 27 10 27 13 0 28 -15 35 -32 9 -25 26 -23 20 2 -4 16 0 20 20 20
14 0 29 -4 32 -10 3 -6 12 -10 18 -10 7 0 6 4 -3 10 -22 15 5 30 45 24 26 -3
27 -3 5 4 -17 5 -21 10 -12 16 17 10 15 26 -3 26 -8 0 -15 -6 -15 -13z"/>
</g>
</svg>
